<svg width="399" height="125" viewBox="0 0 399 125" fill="none" xmlns="http://www.w3.org/2000/svg">
<path d="M78.1307 49.1176L77 45H113.13L114.309 49.1176H96.1886L96.1061 79.4261H90.4505V49.1176H78.1307Z" fill="#FF0004"/>
<path d="M117.691 79.6164L107.41 49.1176H114.309L120.654 72.1776H120.95L127.094 51.56H132.754L138.913 72.1913H139.194L144.947 51.56H151.169L142.156 79.6164H136.449L130.056 59.9304H129.807L123.398 79.6164H117.691Z" fill="#FF0004"/>
<path d="M182 65.5882C182 68.6112 181.355 71.2004 180.066 73.3558C178.788 75.502 177.041 77.146 174.827 78.2876C172.623 79.4292 170.123 80 167.327 80C164.531 80 162.026 79.4292 159.811 78.2876C157.608 77.1368 155.861 75.4883 154.572 73.3421C153.294 71.1867 152.654 68.6021 152.654 65.5882C152.654 62.5652 153.294 59.9806 154.572 57.8344C155.861 55.679 157.608 54.0305 159.811 52.8889C162.026 51.7472 164.531 51.1764 167.327 51.1764C170.123 51.1764 172.623 51.7472 174.827 52.8889C177.041 54.0305 178.788 55.679 180.066 57.8344C181.355 59.9806 182 62.5652 182 65.5882ZM176.184 65.5882C176.184 63.4602 175.804 61.6656 175.046 60.2043C174.297 58.7339 173.258 57.6243 171.927 56.8754C170.596 56.1174 169.063 55.7383 167.327 55.7383C165.591 55.7383 164.058 56.1174 162.727 56.8754C161.397 57.6243 160.352 58.7339 159.593 60.2043C158.845 61.6656 158.47 63.4602 158.47 65.5882C158.47 67.7162 158.845 69.5154 159.593 70.9858C160.352 72.4471 161.397 73.5567 162.727 74.3147C164.058 75.0636 165.591 75.4381 167.327 75.4381C169.063 75.4381 170.596 75.0636 171.927 74.3147C173.258 73.5567 174.297 72.4471 175.046 70.9858C175.804 69.5154 176.184 67.7162 176.184 65.5882Z" fill="#FF0004"/>
<path d="M10.3889 34.8333L0.333333 9H3.66667L9.55556 24.0556C9.74074 24.537 9.90741 25 10.0556 25.4444C10.2222 25.8704 10.3796 26.3704 10.5278 26.9444C10.6759 26.3704 10.8241 25.8704 10.9722 25.4444C11.1389 25 11.3148 24.537 11.5 24.0556L17.3611 9H20.5L10.4444 34.8333H10.3889ZM28.7714 34.3333C27.0307 34.3333 25.4659 33.9444 24.077 33.1667C22.7066 32.3889 21.6233 31.3333 20.827 30C20.0492 28.6481 19.6603 27.1481 19.6603 25.5C19.6603 23.9259 20.0399 22.5 20.7992 21.2222C21.5585 19.9259 22.577 18.8981 23.8548 18.1389C25.1511 17.3796 26.577 17 28.1325 17C29.6696 17 31.077 17.3704 32.3548 18.1111C33.6325 18.8333 34.6511 19.8148 35.4103 21.0556C36.1696 22.2963 36.5492 23.7037 36.5492 25.2778V26.5H25.6603C25.1788 26.5 24.6881 26.4815 24.1881 26.4444C23.6881 26.4074 23.1973 26.3519 22.7159 26.2778C22.9196 27.7593 23.5862 29 24.7159 30C25.864 31 27.2251 31.5 28.7992 31.5C29.8548 31.5 30.8362 31.2593 31.7436 30.7778C32.6511 30.2963 33.3825 29.6574 33.9381 28.8611L34.7714 32.2778C33.9751 32.9259 33.0585 33.4352 32.0214 33.8056C31.0029 34.1574 29.9196 34.3333 28.7714 34.3333ZM22.6325 24.25C23.6325 24.0833 24.6418 24 25.6603 24H31.1881C31.5955 24 31.9936 24.0185 32.3825 24.0556C32.7899 24.0741 33.1973 24.1019 33.6048 24.1389C33.3455 22.8426 32.6974 21.7778 31.6603 20.9444C30.6233 20.0926 29.4473 19.6667 28.1325 19.6667C26.7807 19.6667 25.5955 20.1204 24.577 21.0278C23.5585 21.9167 22.9103 22.9907 22.6325 24.25ZM40.3935 34V17.3333H43.1713V20.0278C43.7824 19.0463 44.5695 18.2963 45.5324 17.7778C46.5139 17.2593 47.5695 17 48.6991 17C49.8843 17 50.9769 17.2963 51.9769 17.8889C52.9954 18.463 53.8195 19.3056 54.4491 20.4167C55.0787 21.5093 55.3935 22.8426 55.3935 24.4167V34H52.3935V24.8333C52.3935 23.5185 51.9954 22.3611 51.1991 21.3611C50.4213 20.3426 49.3195 19.8333 47.8935 19.8333C46.7269 19.8333 45.6806 20.2593 44.7547 21.1111C43.8472 21.9444 43.3935 23.1574 43.3935 24.75V34H40.3935ZM60.2335 34V7.33333H63.2335V19.6944C63.8632 18.8241 64.6409 18.1574 65.5669 17.6944C66.4928 17.2315 67.4835 17 68.5391 17C69.7243 17 70.8169 17.2963 71.8169 17.8889C72.8354 18.463 73.6595 19.3056 74.2891 20.4167C74.9187 21.5093 75.2335 22.8426 75.2335 24.4167V34H72.2335V24.8333C72.2335 23.5185 71.8354 22.3611 71.0391 21.3611C70.2613 20.3426 69.1595 19.8333 67.7335 19.8333C66.5669 19.8333 65.5206 20.2593 64.5947 21.1111C63.6872 21.9444 63.2335 23.1574 63.2335 24.75V34H60.2335ZM87.2124 34.2222C85.6939 34.2222 84.305 33.8426 83.0458 33.0833C81.7865 32.3056 80.7772 31.2685 80.018 29.9722C79.2772 28.6759 78.9069 27.2407 78.9069 25.6667C78.9069 24.0926 79.2772 22.6574 80.018 21.3611C80.7772 20.0648 81.7865 19.037 83.0458 18.2778C84.305 17.5 85.6939 17.1111 87.2124 17.1111C88.3606 17.1111 89.4347 17.3241 90.4347 17.75C91.4532 18.1759 92.3328 18.7685 93.0735 19.5278V17.3333H95.8513V34H93.0735V31.8056C92.3328 32.5463 91.4532 33.1389 90.4347 33.5833C89.4347 34.0093 88.3606 34.2222 87.2124 34.2222ZM87.6013 31.5C88.6569 31.5 89.6106 31.2407 90.4624 30.7222C91.3328 30.1852 92.018 29.4815 92.518 28.6111C93.0365 27.7222 93.2958 26.7407 93.2958 25.6667C93.2958 24.5926 93.0365 23.6204 92.518 22.75C92.018 21.8611 91.3328 21.1574 90.4624 20.6389C89.6106 20.1019 88.6569 19.8333 87.6013 19.8333C86.5458 19.8333 85.5828 20.1019 84.7124 20.6389C83.8606 21.1574 83.1754 21.8611 82.6569 22.75C82.1569 23.6204 81.9069 24.5926 81.9069 25.6667C81.9069 26.7407 82.1569 27.7222 82.6569 28.6111C83.1754 29.4815 83.8606 30.1852 84.7124 30.7222C85.5828 31.2407 86.5458 31.5 87.6013 31.5ZM116.834 34.3333C115.205 34.3333 113.723 33.9444 112.39 33.1667C111.056 32.3889 109.992 31.3426 109.195 30.0278C108.399 28.713 108.001 27.2593 108.001 25.6667C108.001 24.0741 108.399 22.6204 109.195 21.3056C109.992 19.9907 111.056 18.9444 112.39 18.1667C113.723 17.3889 115.205 17 116.834 17C118.038 17 119.168 17.213 120.223 17.6389C121.279 18.0648 122.205 18.6296 123.001 19.3333L122.084 23.1111C121.621 22.1852 120.918 21.4074 119.973 20.7778C119.047 20.1481 117.992 19.8333 116.806 19.8333C115.732 19.8333 114.751 20.1019 113.862 20.6389C112.992 21.1574 112.297 21.8611 111.779 22.75C111.26 23.6204 111.001 24.5926 111.001 25.6667C111.001 26.7222 111.26 27.6944 111.779 28.5833C112.297 29.4722 112.992 30.1852 113.862 30.7222C114.751 31.2407 115.732 31.5 116.806 31.5C117.992 31.5 119.047 31.1944 119.973 30.5833C120.918 29.9722 121.621 29.1852 122.084 28.2222L123.001 32C122.205 32.7037 121.279 33.2685 120.223 33.6944C119.168 34.1204 118.038 34.3333 116.834 34.3333ZM134.119 34.3333C132.508 34.3333 131.035 33.9444 129.702 33.1667C128.369 32.3889 127.304 31.3426 126.508 30.0278C125.73 28.713 125.341 27.2593 125.341 25.6667C125.341 24.0556 125.73 22.6019 126.508 21.3056C127.304 19.9907 128.369 18.9444 129.702 18.1667C131.035 17.3889 132.508 17 134.119 17C135.748 17 137.221 17.3889 138.535 18.1667C139.869 18.9444 140.924 19.9907 141.702 21.3056C142.498 22.6019 142.896 24.0556 142.896 25.6667C142.896 27.2593 142.498 28.713 141.702 30.0278C140.924 31.3426 139.869 32.3889 138.535 33.1667C137.221 33.9444 135.748 34.3333 134.119 34.3333ZM134.119 31.5C135.193 31.5 136.165 31.2407 137.035 30.7222C137.906 30.1852 138.6 29.4815 139.119 28.6111C139.637 27.7222 139.896 26.7407 139.896 25.6667C139.896 24.5926 139.637 23.6204 139.119 22.75C138.6 21.8611 137.906 21.1574 137.035 20.6389C136.165 20.1019 135.193 19.8333 134.119 19.8333C133.045 19.8333 132.072 20.1019 131.202 20.6389C130.332 21.1574 129.637 21.8611 129.119 22.75C128.6 23.6204 128.341 24.5926 128.341 25.6667C128.341 26.7407 128.6 27.7222 129.119 28.6111C129.637 29.4815 130.332 30.1852 131.202 30.7222C132.072 31.2407 133.045 31.5 134.119 31.5ZM146.894 34V17.3333H149.672V20.0278C150.283 19.0463 151.07 18.2963 152.033 17.7778C153.015 17.2593 154.07 17 155.2 17C156.385 17 157.478 17.2963 158.478 17.8889C159.496 18.463 160.32 19.3056 160.95 20.4167C161.58 21.5093 161.894 22.8426 161.894 24.4167V34H158.894V24.8333C158.894 23.5185 158.496 22.3611 157.7 21.3611C156.922 20.3426 155.82 19.8333 154.394 19.8333C153.228 19.8333 152.182 20.2593 151.256 21.1111C150.348 21.9444 149.894 23.1574 149.894 24.75V34H146.894ZM166.734 34V7.33333H169.734V19.6944C170.364 18.8241 171.142 18.1574 172.068 17.6944C172.994 17.2315 173.984 17 175.04 17C176.225 17 177.318 17.2963 178.318 17.8889C179.336 18.463 180.16 19.3056 180.79 20.4167C181.42 21.5093 181.734 22.8426 181.734 24.4167V34H178.734V24.8333C178.734 23.5185 178.336 22.3611 177.54 21.3611C176.762 20.3426 175.66 19.8333 174.234 19.8333C173.068 19.8333 172.022 20.2593 171.096 21.1111C170.188 21.9444 169.734 23.1574 169.734 24.75V34H166.734ZM194.519 34.3333C192.778 34.3333 191.213 33.9444 189.824 33.1667C188.454 32.3889 187.371 31.3333 186.574 30C185.797 28.6481 185.408 27.1481 185.408 25.5C185.408 23.9259 185.787 22.5 186.547 21.2222C187.306 19.9259 188.324 18.8981 189.602 18.1389C190.899 17.3796 192.324 17 193.88 17C195.417 17 196.824 17.3704 198.102 18.1111C199.38 18.8333 200.399 19.8148 201.158 21.0556C201.917 22.2963 202.297 23.7037 202.297 25.2778V26.5H191.408C190.926 26.5 190.436 26.4815 189.936 26.4444C189.436 26.4074 188.945 26.3519 188.463 26.2778C188.667 27.7593 189.334 29 190.463 30C191.612 31 192.973 31.5 194.547 31.5C195.602 31.5 196.584 31.2593 197.491 30.7778C198.399 30.2963 199.13 29.6574 199.686 28.8611L200.519 32.2778C199.723 32.9259 198.806 33.4352 197.769 33.8056C196.75 34.1574 195.667 34.3333 194.519 34.3333ZM188.38 24.25C189.38 24.0833 190.389 24 191.408 24H196.936C197.343 24 197.741 24.0185 198.13 24.0556C198.537 24.0741 198.945 24.1019 199.352 24.1389C199.093 22.8426 198.445 21.7778 197.408 20.9444C196.371 20.0926 195.195 19.6667 193.88 19.6667C192.528 19.6667 191.343 20.1204 190.324 21.0278C189.306 21.9167 188.658 22.9907 188.38 24.25ZM213.808 34.3333C212.178 34.3333 210.697 33.9444 209.363 33.1667C208.03 32.3889 206.965 31.3426 206.169 30.0278C205.373 28.713 204.974 27.2593 204.974 25.6667C204.974 24.0741 205.373 22.6204 206.169 21.3056C206.965 19.9907 208.03 18.9444 209.363 18.1667C210.697 17.3889 212.178 17 213.808 17C215.011 17 216.141 17.213 217.197 17.6389C218.252 18.0648 219.178 18.6296 219.974 19.3333L219.058 23.1111C218.595 22.1852 217.891 21.4074 216.947 20.7778C216.021 20.1481 214.965 19.8333 213.78 19.8333C212.706 19.8333 211.724 20.1019 210.835 20.6389C209.965 21.1574 209.271 21.8611 208.752 22.75C208.234 23.6204 207.974 24.5926 207.974 25.6667C207.974 26.7222 208.234 27.6944 208.752 28.5833C209.271 29.4722 209.965 30.1852 210.835 30.7222C211.724 31.2407 212.706 31.5 213.78 31.5C214.965 31.5 216.021 31.1944 216.947 30.5833C217.891 29.9722 218.595 29.1852 219.058 28.2222L219.974 32C219.178 32.7037 218.252 33.2685 217.197 33.6944C216.141 34.1204 215.011 34.3333 213.808 34.3333ZM231.425 34.3333C229.685 34.3333 228.12 33.9444 226.731 33.1667C225.361 32.3889 224.277 31.3333 223.481 30C222.703 28.6481 222.314 27.1481 222.314 25.5C222.314 23.9259 222.694 22.5 223.453 21.2222C224.213 19.9259 225.231 18.8981 226.509 18.1389C227.805 17.3796 229.231 17 230.787 17C232.324 17 233.731 17.3704 235.009 18.1111C236.287 18.8333 237.305 19.8148 238.064 21.0556C238.824 22.2963 239.203 23.7037 239.203 25.2778V26.5H228.314C227.833 26.5 227.342 26.4815 226.842 26.4444C226.342 26.4074 225.851 26.3519 225.37 26.2778C225.574 27.7593 226.24 29 227.37 30C228.518 31 229.879 31.5 231.453 31.5C232.509 31.5 233.49 31.2593 234.398 30.7778C235.305 30.2963 236.037 29.6574 236.592 28.8611L237.425 32.2778C236.629 32.9259 235.713 33.4352 234.675 33.8056C233.657 34.1574 232.574 34.3333 231.425 34.3333ZM225.287 24.25C226.287 24.0833 227.296 24 228.314 24H233.842C234.25 24 234.648 24.0185 235.037 24.0556C235.444 24.0741 235.851 24.1019 236.259 24.1389C236 22.8426 235.351 21.7778 234.314 20.9444C233.277 20.0926 232.101 19.6667 230.787 19.6667C229.435 19.6667 228.25 20.1204 227.231 21.0278C226.213 21.9167 225.564 22.9907 225.287 24.25ZM243.048 34V17.3333H245.825V20.3889C246.418 19.4074 247.205 18.6296 248.186 18.0556C249.168 17.463 250.335 17.1667 251.686 17.1667L252.436 20.1667C252.085 20.0556 251.677 20 251.214 20C249.659 20 248.409 20.5 247.464 21.5C246.52 22.4815 246.048 23.8889 246.048 25.7222V34H243.048ZM271.159 34.3333C269.548 34.3333 268.076 33.9444 266.742 33.1667C265.409 32.3889 264.344 31.3426 263.548 30.0278C262.77 28.713 262.381 27.2593 262.381 25.6667C262.381 24.0556 262.77 22.6019 263.548 21.3056C264.344 19.9907 265.409 18.9444 266.742 18.1667C268.076 17.3889 269.548 17 271.159 17C272.789 17 274.261 17.3889 275.576 18.1667C276.909 18.9444 277.965 19.9907 278.742 21.3056C279.539 22.6019 279.937 24.0556 279.937 25.6667C279.937 27.2593 279.539 28.713 278.742 30.0278C277.965 31.3426 276.909 32.3889 275.576 33.1667C274.261 33.9444 272.789 34.3333 271.159 34.3333ZM271.159 31.5C272.233 31.5 273.205 31.2407 274.076 30.7222C274.946 30.1852 275.641 29.4815 276.159 28.6111C276.678 27.7222 276.937 26.7407 276.937 25.6667C276.937 24.5926 276.678 23.6204 276.159 22.75C275.641 21.8611 274.946 21.1574 274.076 20.6389C273.205 20.1019 272.233 19.8333 271.159 19.8333C270.085 19.8333 269.113 20.1019 268.242 20.6389C267.372 21.1574 266.678 21.8611 266.159 22.75C265.641 23.6204 265.381 24.5926 265.381 25.6667C265.381 26.7407 265.641 27.7222 266.159 28.6111C266.678 29.4815 267.372 30.1852 268.242 30.7222C269.113 31.2407 270.085 31.5 271.159 31.5ZM292.095 34V17.3333H294.873V20.0278C295.484 19.0463 296.271 18.2963 297.234 17.7778C298.215 17.2593 299.271 17 300.401 17C301.586 17 302.678 17.2963 303.678 17.8889C304.697 18.463 305.521 19.3056 306.151 20.4167C306.78 21.5093 307.095 22.8426 307.095 24.4167V34H304.095V24.8333C304.095 23.5185 303.697 22.3611 302.901 21.3611C302.123 20.3426 301.021 19.8333 299.595 19.8333C298.428 19.8333 297.382 20.2593 296.456 21.1111C295.549 21.9444 295.095 23.1574 295.095 24.75V34H292.095ZM319.546 34.3333C317.935 34.3333 316.463 33.9444 315.13 33.1667C313.796 32.3889 312.731 31.3426 311.935 30.0278C311.157 28.713 310.768 27.2593 310.768 25.6667C310.768 24.0556 311.157 22.6019 311.935 21.3056C312.731 19.9907 313.796 18.9444 315.13 18.1667C316.463 17.3889 317.935 17 319.546 17C321.176 17 322.648 17.3889 323.963 18.1667C325.296 18.9444 326.352 19.9907 327.13 21.3056C327.926 22.6019 328.324 24.0556 328.324 25.6667C328.324 27.2593 327.926 28.713 327.13 30.0278C326.352 31.3426 325.296 32.3889 323.963 33.1667C322.648 33.9444 321.176 34.3333 319.546 34.3333ZM319.546 31.5C320.62 31.5 321.593 31.2407 322.463 30.7222C323.333 30.1852 324.028 29.4815 324.546 28.6111C325.065 27.7222 325.324 26.7407 325.324 25.6667C325.324 24.5926 325.065 23.6204 324.546 22.75C324.028 21.8611 323.333 21.1574 322.463 20.6389C321.593 20.1019 320.62 19.8333 319.546 19.8333C318.472 19.8333 317.5 20.1019 316.63 20.6389C315.759 21.1574 315.065 21.8611 314.546 22.75C314.028 23.6204 313.768 24.5926 313.768 25.6667C313.768 26.7407 314.028 27.7222 314.546 28.6111C315.065 29.4815 315.759 30.1852 316.63 30.7222C317.5 31.2407 318.472 31.5 319.546 31.5ZM336.628 34.3333C335.776 34.3333 334.859 34.1759 333.878 33.8611C332.915 33.5278 332.081 32.9815 331.378 32.2222L332.211 28.9444C332.729 29.8148 333.396 30.5093 334.211 31.0278C335.026 31.5278 335.896 31.7778 336.822 31.7778C337.711 31.7778 338.378 31.5648 338.822 31.1389C339.266 30.6944 339.489 30.1574 339.489 29.5278C339.489 28.8056 339.248 28.2778 338.766 27.9444C338.303 27.6111 337.887 27.3796 337.516 27.25L335.266 26.3889C334.859 26.2222 334.368 25.9815 333.794 25.6667C333.22 25.3333 332.72 24.8611 332.294 24.25C331.868 23.6389 331.655 22.8426 331.655 21.8611C331.655 20.9722 331.868 20.1574 332.294 19.4167C332.72 18.6759 333.322 18.0926 334.1 17.6667C334.878 17.2222 335.794 17 336.85 17C337.683 17 338.553 17.1481 339.461 17.4444C340.368 17.7407 341.137 18.2407 341.766 18.9444L340.933 22.2222C340.489 21.4074 339.887 20.7593 339.128 20.2778C338.368 19.7963 337.581 19.5556 336.766 19.5556C336.007 19.5556 335.405 19.7685 334.961 20.1944C334.535 20.6204 334.322 21.1111 334.322 21.6667C334.322 22.1111 334.47 22.5093 334.766 22.8611C335.063 23.213 335.507 23.5 336.1 23.7222L338.35 24.5833C338.757 24.7315 339.257 24.9722 339.85 25.3056C340.461 25.6389 340.998 26.1204 341.461 26.75C341.924 27.3796 342.155 28.2315 342.155 29.3056C342.155 30.8056 341.628 32.0185 340.572 32.9444C339.535 33.8704 338.22 34.3333 336.628 34.3333ZM350.647 34.3333C349.795 34.3333 348.879 34.1759 347.897 33.8611C346.934 33.5278 346.101 32.9815 345.397 32.2222L346.231 28.9444C346.749 29.8148 347.416 30.5093 348.231 31.0278C349.045 31.5278 349.916 31.7778 350.842 31.7778C351.731 31.7778 352.397 31.5648 352.842 31.1389C353.286 30.6944 353.508 30.1574 353.508 29.5278C353.508 28.8056 353.268 28.2778 352.786 27.9444C352.323 27.6111 351.906 27.3796 351.536 27.25L349.286 26.3889C348.879 26.2222 348.388 25.9815 347.814 25.6667C347.24 25.3333 346.74 24.8611 346.314 24.25C345.888 23.6389 345.675 22.8426 345.675 21.8611C345.675 20.9722 345.888 20.1574 346.314 19.4167C346.74 18.6759 347.342 18.0926 348.119 17.6667C348.897 17.2222 349.814 17 350.869 17C351.703 17 352.573 17.1481 353.481 17.4444C354.388 17.7407 355.156 18.2407 355.786 18.9444L354.953 22.2222C354.508 21.4074 353.906 20.7593 353.147 20.2778C352.388 19.7963 351.601 19.5556 350.786 19.5556C350.027 19.5556 349.425 19.7685 348.981 20.1944C348.555 20.6204 348.342 21.1111 348.342 21.6667C348.342 22.1111 348.49 22.5093 348.786 22.8611C349.082 23.213 349.527 23.5 350.119 23.7222L352.369 24.5833C352.777 24.7315 353.277 24.9722 353.869 25.3056C354.481 25.6389 355.018 26.1204 355.481 26.75C355.944 27.3796 356.175 28.2315 356.175 29.3056C356.175 30.8056 355.647 32.0185 354.592 32.9444C353.555 33.8704 352.24 34.3333 350.647 34.3333ZM367.972 34.3333C366.361 34.3333 364.889 33.9444 363.556 33.1667C362.222 32.3889 361.158 31.3426 360.361 30.0278C359.584 28.713 359.195 27.2593 359.195 25.6667C359.195 24.0556 359.584 22.6019 360.361 21.3056C361.158 19.9907 362.222 18.9444 363.556 18.1667C364.889 17.3889 366.361 17 367.972 17C369.602 17 371.074 17.3889 372.389 18.1667C373.722 18.9444 374.778 19.9907 375.556 21.3056C376.352 22.6019 376.75 24.0556 376.75 25.6667C376.75 27.2593 376.352 28.713 375.556 30.0278C374.778 31.3426 373.722 32.3889 372.389 33.1667C371.074 33.9444 369.602 34.3333 367.972 34.3333ZM367.972 31.5C369.047 31.5 370.019 31.2407 370.889 30.7222C371.76 30.1852 372.454 29.4815 372.972 28.6111C373.491 27.7222 373.75 26.7407 373.75 25.6667C373.75 24.5926 373.491 23.6204 372.972 22.75C372.454 21.8611 371.76 21.1574 370.889 20.6389C370.019 20.1019 369.047 19.8333 367.972 19.8333C366.898 19.8333 365.926 20.1019 365.056 20.6389C364.185 21.1574 363.491 21.8611 362.972 22.75C362.454 23.6204 362.195 24.5926 362.195 25.6667C362.195 26.7407 362.454 27.7222 362.972 28.6111C363.491 29.4815 364.185 30.1852 365.056 30.7222C365.926 31.2407 366.898 31.5 367.972 31.5ZM3.5 116V91H10.5C12.0926 91 13.3519 91.3148 14.2778 91.9444C15.2222 92.5741 15.8981 93.3426 16.3056 94.25C16.713 95.1389 16.9167 95.9815 16.9167 96.7778C16.9167 97.6852 16.7037 98.5185 16.2778 99.2778C15.8704 100.019 15.3148 100.63 14.6111 101.111C15.963 101.722 17.0556 102.639 17.8889 103.861C18.7407 105.083 19.1667 106.472 19.1667 108.028C19.1667 109.343 18.8333 110.611 18.1667 111.833C17.5185 113.056 16.5463 114.056 15.25 114.833C13.9722 115.611 12.3889 116 10.5 116H3.5ZM6.66667 113.167H10.2778C11.6481 113.167 12.75 112.898 13.5833 112.361C14.4167 111.824 15.0278 111.148 15.4167 110.333C15.8056 109.519 16 108.713 16 107.917C16 107.139 15.8148 106.343 15.4444 105.528C15.0741 104.713 14.4722 104.037 13.6389 103.5C12.8056 102.944 11.6852 102.667 10.2778 102.667H6.66667V113.167ZM6.66667 100H10.25C11.3426 100 12.2222 99.7407 12.8889 99.2222C13.5741 98.6852 13.9167 97.9259 13.9167 96.9444C13.9167 95.9259 13.5833 95.1574 12.9167 94.6389C12.25 94.1019 11.3981 93.8333 10.3611 93.8333H6.66667V100ZM30.4659 116.222C28.9474 116.222 27.5585 115.843 26.2992 115.083C25.0399 114.306 24.0307 113.269 23.2714 111.972C22.5307 110.676 22.1603 109.241 22.1603 107.667C22.1603 106.093 22.5307 104.657 23.2714 103.361C24.0307 102.065 25.0399 101.037 26.2992 100.278C27.5585 99.5 28.9474 99.1111 30.4659 99.1111C31.614 99.1111 32.6881 99.3241 33.6881 99.75C34.7066 100.176 35.5862 100.769 36.327 101.528V99.3333H39.1048V116H36.327V113.806C35.5862 114.546 34.7066 115.139 33.6881 115.583C32.6881 116.009 31.614 116.222 30.4659 116.222ZM30.8548 113.5C31.9103 113.5 32.864 113.241 33.7159 112.722C34.5862 112.185 35.2714 111.481 35.7714 110.611C36.2899 109.722 36.5492 108.741 36.5492 107.667C36.5492 106.593 36.2899 105.62 35.7714 104.75C35.2714 103.861 34.5862 103.157 33.7159 102.639C32.864 102.102 31.9103 101.833 30.8548 101.833C29.7992 101.833 28.8362 102.102 27.9659 102.639C27.114 103.157 26.4288 103.861 25.9103 104.75C25.4103 105.62 25.1603 106.593 25.1603 107.667C25.1603 108.741 25.4103 109.722 25.9103 110.611C26.4288 111.481 27.114 112.185 27.9659 112.722C28.8362 113.241 29.7992 113.5 30.8548 113.5ZM44.2607 116V99.3333H47.2607V116H44.2607ZM45.7607 96.3333C45.2052 96.3333 44.733 96.1389 44.3441 95.75C43.9552 95.3611 43.7607 94.8889 43.7607 94.3333C43.7607 93.7593 43.9552 93.287 44.3441 92.9167C44.733 92.5278 45.2052 92.3333 45.7607 92.3333C46.3348 92.3333 46.807 92.5278 47.1774 92.9167C47.5663 93.287 47.7607 93.7593 47.7607 94.3333C47.7607 94.8889 47.5663 95.3611 47.1774 95.75C46.807 96.1389 46.3348 96.3333 45.7607 96.3333ZM50.421 116L56.2822 107.167L51.0599 99.3333H54.5599L56.171 101.889C56.5229 102.426 56.8655 102.991 57.1988 103.583C57.5507 104.157 57.8562 104.75 58.1155 105.361C58.3933 104.75 58.6988 104.157 59.0322 103.583C59.384 103.009 59.7359 102.444 60.0877 101.889L61.671 99.3333H65.1155L59.8933 107.167L65.7544 116H62.1988L59.921 112.361C59.5877 111.824 59.2544 111.287 58.921 110.75C58.5877 110.194 58.2914 109.62 58.0322 109.028C57.7729 109.62 57.4766 110.194 57.1433 110.75C56.8099 111.287 56.4766 111.824 56.1433 112.361L53.8655 116H50.421ZM75.7914 116.333C74.0507 116.333 72.4859 115.944 71.097 115.167C69.7266 114.389 68.6433 113.333 67.847 112C67.0692 110.648 66.6803 109.148 66.6803 107.5C66.6803 105.926 67.0599 104.5 67.8192 103.222C68.5785 101.926 69.597 100.898 70.8748 100.139C72.1711 99.3796 73.597 99 75.1525 99C76.6896 99 78.097 99.3704 79.3748 100.111C80.6525 100.833 81.6711 101.815 82.4303 103.056C83.1896 104.296 83.5692 105.704 83.5692 107.278V108.5H72.6803C72.1988 108.5 71.7081 108.481 71.2081 108.444C70.7081 108.407 70.2174 108.352 69.7359 108.278C69.9396 109.759 70.6062 111 71.7359 112C72.884 113 74.2451 113.5 75.8192 113.5C76.8748 113.5 77.8562 113.259 78.7636 112.778C79.6711 112.296 80.4025 111.657 80.9581 110.861L81.7914 114.278C80.9951 114.926 80.0785 115.435 79.0414 115.806C78.0229 116.157 76.9396 116.333 75.7914 116.333ZM69.6525 106.25C70.6525 106.083 71.6618 106 72.6803 106H78.2081C78.6155 106 79.0136 106.019 79.4025 106.056C79.8099 106.074 80.2174 106.102 80.6248 106.139C80.3655 104.843 79.7174 103.778 78.6803 102.944C77.6433 102.093 76.4674 101.667 75.1525 101.667C73.8007 101.667 72.6155 102.12 71.597 103.028C70.5785 103.917 69.9303 104.991 69.6525 106.25ZM93.7683 124.667L93.1572 122.083C93.8424 122.083 94.4164 121.889 94.8794 121.5C95.3424 121.111 95.5739 120.407 95.5739 119.389V99.3333H98.5739V119.444C98.5739 121.111 98.1109 122.398 97.185 123.306C96.2776 124.213 95.1387 124.667 93.7683 124.667ZM97.0739 96.3333C96.5183 96.3333 96.0461 96.1389 95.6572 95.75C95.2683 95.3611 95.0739 94.8889 95.0739 94.3333C95.0739 93.7593 95.2683 93.287 95.6572 92.9167C96.0461 92.5278 96.5183 92.3333 97.0739 92.3333C97.6479 92.3333 98.1202 92.5278 98.4905 92.9167C98.8794 93.287 99.0739 93.7593 99.0739 94.3333C99.0739 94.8889 98.8794 95.3611 98.4905 95.75C98.1202 96.1389 97.6479 96.3333 97.0739 96.3333ZM110.873 116.222C109.355 116.222 107.966 115.843 106.706 115.083C105.447 114.306 104.438 113.269 103.679 111.972C102.938 110.676 102.567 109.241 102.567 107.667C102.567 106.093 102.938 104.657 103.679 103.361C104.438 102.065 105.447 101.037 106.706 100.278C107.966 99.5 109.355 99.1111 110.873 99.1111C112.021 99.1111 113.095 99.3241 114.095 99.75C115.114 100.176 115.993 100.769 116.734 101.528V99.3333H119.512V116H116.734V113.806C115.993 114.546 115.114 115.139 114.095 115.583C113.095 116.009 112.021 116.222 110.873 116.222ZM111.262 113.5C112.317 113.5 113.271 113.241 114.123 112.722C114.993 112.185 115.679 111.481 116.179 110.611C116.697 109.722 116.956 108.741 116.956 107.667C116.956 106.593 116.697 105.62 116.179 104.75C115.679 103.861 114.993 103.157 114.123 102.639C113.271 102.102 112.317 101.833 111.262 101.833C110.206 101.833 109.243 102.102 108.373 102.639C107.521 103.157 106.836 103.861 106.317 104.75C105.817 105.62 105.567 106.593 105.567 107.667C105.567 108.741 105.817 109.722 106.317 110.611C106.836 111.481 107.521 112.185 108.373 112.722C109.243 113.241 110.206 113.5 111.262 113.5ZM110.095 96.8333L112.595 91.8333H116.095L112.623 96.8333H110.095ZM127.335 107.667L127.168 91H130.168L130.001 107.667H127.335ZM128.668 116.333C128.094 116.333 127.603 116.13 127.196 115.722C126.788 115.315 126.585 114.824 126.585 114.25C126.585 113.657 126.788 113.167 127.196 112.778C127.603 112.37 128.094 112.167 128.668 112.167C129.261 112.167 129.751 112.37 130.14 112.778C130.548 113.167 130.751 113.657 130.751 114.25C130.751 114.824 130.548 115.315 130.14 115.722C129.751 116.13 129.261 116.333 128.668 116.333Z" fill="url(#paint0_linear_637_112)"/>
<path d="M9.80556 75.2222C8.28704 75.2222 6.89815 74.8426 5.63889 74.0833C4.37963 73.3056 3.37037 72.2685 2.61111 70.9722C1.87037 69.6759 1.5 68.2407 1.5 66.6667C1.5 65.0926 1.87037 63.6574 2.61111 62.3611C3.37037 61.0648 4.37963 60.037 5.63889 59.2778C6.89815 58.5 8.28704 58.1111 9.80556 58.1111C10.9537 58.1111 12.0278 58.3241 13.0278 58.75C14.0463 59.1759 14.9259 59.7685 15.6667 60.5278V58.3333H18.4444V75H15.6667V72.8056C14.9259 73.5463 14.0463 74.1389 13.0278 74.5833C12.0278 75.0093 10.9537 75.2222 9.80556 75.2222ZM10.1944 72.5C11.25 72.5 12.2037 72.2407 13.0556 71.7222C13.9259 71.1852 14.6111 70.4815 15.1111 69.6111C15.6296 68.7222 15.8889 67.7407 15.8889 66.6667C15.8889 65.5926 15.6296 64.6204 15.1111 63.75C14.6111 62.8611 13.9259 62.1574 13.0556 61.6389C12.2037 61.1019 11.25 60.8333 10.1944 60.8333C9.13889 60.8333 8.17593 61.1019 7.30556 61.6389C6.4537 62.1574 5.76852 62.8611 5.25 63.75C4.75 64.6204 4.5 65.5926 4.5 66.6667C4.5 67.7407 4.75 68.7222 5.25 69.6111C5.76852 70.4815 6.4537 71.1852 7.30556 71.7222C8.17593 72.2407 9.13889 72.5 10.1944 72.5ZM23.6004 83.3333V58.3333H26.3782V60.5278C27.1375 59.7685 28.0171 59.1759 29.0171 58.75C30.0171 58.3241 31.0912 58.1111 32.2393 58.1111C33.7763 58.1111 35.1652 58.5 36.406 59.2778C37.6652 60.037 38.6652 61.0648 39.406 62.3611C40.1652 63.6574 40.5449 65.0926 40.5449 66.6667C40.5449 68.2407 40.1652 69.6759 39.406 70.9722C38.6652 72.2685 37.6652 73.3056 36.406 74.0833C35.1652 74.8426 33.7763 75.2222 32.2393 75.2222C31.1467 75.2222 30.1189 75.0278 29.156 74.6389C28.193 74.25 27.3412 73.713 26.6004 73.0278V83.3333H23.6004ZM31.8504 72.5C32.906 72.5 33.8597 72.2407 34.7115 71.7222C35.5819 71.1852 36.2671 70.4815 36.7671 69.6111C37.2856 68.7222 37.5449 67.7407 37.5449 66.6667C37.5449 65.5926 37.2856 64.6204 36.7671 63.75C36.2671 62.8611 35.5819 62.1574 34.7115 61.6389C33.8597 61.1019 32.906 60.8333 31.8504 60.8333C30.7949 60.8333 29.8319 61.1019 28.9615 61.6389C28.1097 62.1574 27.4245 62.8611 26.906 63.75C26.406 64.6204 26.156 65.5926 26.156 66.6667C26.156 67.7407 26.406 68.7222 26.906 69.6111C27.4245 70.4815 28.1097 71.1852 28.9615 71.7222C29.8319 72.2407 30.7949 72.5 31.8504 72.5ZM44.5342 83.3333V58.3333H47.3119V60.5278C48.0712 59.7685 48.9508 59.1759 49.9508 58.75C50.9508 58.3241 52.0249 58.1111 53.1731 58.1111C54.7101 58.1111 56.099 58.5 57.3397 59.2778C58.599 60.037 59.599 61.0648 60.3397 62.3611C61.099 63.6574 61.4786 65.0926 61.4786 66.6667C61.4786 68.2407 61.099 69.6759 60.3397 70.9722C59.599 72.2685 58.599 73.3056 57.3397 74.0833C56.099 74.8426 54.7101 75.2222 53.1731 75.2222C52.0805 75.2222 51.0527 75.0278 50.0897 74.6389C49.1268 74.25 48.2749 73.713 47.5342 73.0278V83.3333H44.5342ZM52.7842 72.5C53.8397 72.5 54.7934 72.2407 55.6453 71.7222C56.5156 71.1852 57.2008 70.4815 57.7008 69.6111C58.2194 68.7222 58.4786 67.7407 58.4786 66.6667C58.4786 65.5926 58.2194 64.6204 57.7008 63.75C57.2008 62.8611 56.5156 62.1574 55.6453 61.6389C54.7934 61.1019 53.8397 60.8333 52.7842 60.8333C51.7286 60.8333 50.7656 61.1019 49.8953 61.6389C49.0434 62.1574 48.3582 62.8611 47.8397 63.75C47.3397 64.6204 47.0897 65.5926 47.0897 66.6667C47.0897 67.7407 47.3397 68.7222 47.8397 69.6111C48.3582 70.4815 49.0434 71.1852 49.8953 71.7222C50.7656 72.2407 51.7286 72.5 52.7842 72.5ZM62.9679 79.1667C63.8013 78.1296 64.4679 76.9259 64.9679 75.5556C65.4864 74.1852 65.7457 72.6111 65.7457 70.8333H68.7457C68.7457 72.4074 68.5235 73.8889 68.079 75.2778C67.6531 76.6852 67.0605 77.9815 66.3013 79.1667H62.9679Z" fill="#FF0004"/>
<defs>
<linearGradient id="paint0_linear_637_112" x1="0" y1="54.5" x2="399" y2="54.5" gradientUnits="userSpaceOnUse">
<stop stop-color="#FFB252"/>
<stop offset="0.333333" stop-color="#FF602C"/>
<stop offset="0.666667" stop-color="#CE56D2"/>
<stop offset="1" stop-color="#6169FE"/>
</linearGradient>
</defs>
</svg>
