<svg width="385" height="124" viewBox="0 0 385 124" fill="none" xmlns="http://www.w3.org/2000/svg">
<g filter="url(#filter0_d_637_185)">
<g filter="url(#filter1_i_637_185)">
<rect x="23" y="23" width="339" height="78" rx="11" fill="white" fill-opacity="0.2"/>
<rect x="23.1" y="23.1" width="338.8" height="77.8" rx="10.9" stroke="#BABABA" stroke-width="0.2"/>
<path d="M296 61.5C296 65.0804 294.578 68.5142 292.046 71.0459C289.514 73.5777 286.08 75 282.5 75C278.92 75 275.486 73.5777 272.954 71.0459C270.422 68.5142 269 65.0804 269 61.5C269 57.9196 270.422 54.4858 272.954 51.9541C275.486 49.4223 278.92 48 282.5 48C286.08 48 289.514 49.4223 292.046 51.9541C294.578 54.4858 296 57.9196 296 61.5ZM289.301 56.3869C289.18 56.2668 289.037 56.1722 288.879 56.1088C288.721 56.0454 288.552 56.0145 288.381 56.018C288.211 56.0215 288.044 56.0592 287.888 56.129C287.733 56.1987 287.594 56.2991 287.478 56.424L281.617 63.8912L278.085 60.3576C277.846 60.134 277.528 60.0123 277.2 60.0181C276.872 60.0239 276.56 60.1567 276.328 60.3886C276.096 60.6205 275.963 60.9333 275.957 61.2612C275.951 61.5891 276.073 61.9064 276.297 62.1463L280.762 66.6131C280.882 66.7332 281.025 66.8278 281.183 66.8913C281.341 66.9548 281.51 66.9859 281.679 66.9828C281.849 66.9796 282.017 66.9423 282.172 66.873C282.327 66.8037 282.467 66.7038 282.583 66.5794L289.319 58.1587C289.549 57.92 289.676 57.6007 289.673 57.2694C289.669 56.9381 289.536 56.6212 289.302 56.3869H289.301Z" fill="#FFC1C1"/>
</g>
<path d="M193 61.5C193 65.0804 191.578 68.5142 189.046 71.0459C186.514 73.5777 183.08 75 179.5 75C175.92 75 172.486 73.5777 169.954 71.0459C167.422 68.5142 166 65.0804 166 61.5C166 57.9196 167.422 54.4858 169.954 51.9541C172.486 49.4223 175.92 48 179.5 48C183.08 48 186.514 49.4223 189.046 51.9541C191.578 54.4858 193 57.9196 193 61.5ZM186.301 56.3869C186.18 56.2668 186.037 56.1722 185.879 56.1088C185.721 56.0454 185.552 56.0145 185.381 56.018C185.211 56.0215 185.044 56.0592 184.888 56.129C184.733 56.1987 184.594 56.2991 184.478 56.424L178.617 63.8912L175.085 60.3576C174.846 60.134 174.528 60.0123 174.2 60.0181C173.872 60.0239 173.56 60.1567 173.328 60.3886C173.096 60.6205 172.963 60.9333 172.957 61.2612C172.951 61.5891 173.073 61.9064 173.297 62.1463L177.762 66.6131C177.882 66.7332 178.025 66.8278 178.183 66.8913C178.341 66.9548 178.51 66.9859 178.679 66.9828C178.849 66.9796 179.017 66.9423 179.172 66.873C179.327 66.8037 179.467 66.7038 179.583 66.5794L186.319 58.1587C186.549 57.92 186.676 57.6007 186.673 57.2694C186.669 56.9381 186.536 56.6212 186.302 56.3869H186.301Z" fill="#FFC1C1"/>
<path d="M62 61.5C62 65.0804 60.5777 68.5142 58.0459 71.0459C55.5142 73.5777 52.0804 75 48.5 75C44.9196 75 41.4858 73.5777 38.9541 71.0459C36.4223 68.5142 35 65.0804 35 61.5C35 57.9196 36.4223 54.4858 38.9541 51.9541C41.4858 49.4223 44.9196 48 48.5 48C52.0804 48 55.5142 49.4223 58.0459 51.9541C60.5777 54.4858 62 57.9196 62 61.5ZM55.3006 56.3869C55.1801 56.2668 55.0366 56.1722 54.8786 56.1088C54.7207 56.0454 54.5516 56.0145 54.3815 56.018C54.2113 56.0215 54.0437 56.0592 53.8884 56.129C53.7332 56.1987 53.5937 56.2991 53.4781 56.424L47.6174 63.8912L44.0855 60.3576C43.8456 60.134 43.5283 60.0123 43.2004 60.0181C42.8725 60.0239 42.5596 60.1567 42.3278 60.3886C42.0959 60.6205 41.9631 60.9333 41.9573 61.2612C41.9515 61.5891 42.0732 61.9064 42.2967 62.1463L46.7619 66.6131C46.8822 66.7332 47.0254 66.8278 47.183 66.8913C47.3407 66.9548 47.5095 66.9859 47.6794 66.9828C47.8494 66.9796 48.0169 66.9423 48.1721 66.873C48.3273 66.8037 48.4669 66.7038 48.5827 66.5794L55.3192 58.1587C55.5488 57.92 55.6757 57.6007 55.6726 57.2694C55.6694 56.9381 55.5365 56.6212 55.3023 56.3869H55.3006Z" fill="#FFC1C1"/>
<path d="M72.448 57.68C71.84 57.68 71.2907 57.7867 70.8 58C70.3093 58.2027 69.8933 58.5067 69.552 58.912C69.2107 59.3067 68.9493 59.792 68.768 60.368C68.5867 60.9333 68.496 61.5733 68.496 62.288C68.496 63.2267 68.64 64.0427 68.928 64.736C69.2267 65.4293 69.664 65.9627 70.24 66.336C70.8267 66.7093 71.5573 66.896 72.432 66.896C72.9333 66.896 73.408 66.8533 73.856 66.768C74.304 66.6827 74.7413 66.576 75.168 66.448V67.696C74.7413 67.856 74.2987 67.9733 73.84 68.048C73.392 68.1227 72.8533 68.16 72.224 68.16C71.0613 68.16 70.0907 67.92 69.312 67.44C68.5333 66.96 67.9467 66.2773 67.552 65.392C67.168 64.5067 66.976 63.4667 66.976 62.272C66.976 61.408 67.0933 60.6187 67.328 59.904C67.5733 59.1893 67.9253 58.5707 68.384 58.048C68.8533 57.5253 69.4293 57.1253 70.112 56.848C70.7947 56.56 71.5787 56.416 72.464 56.416C73.0507 56.416 73.616 56.4747 74.16 56.592C74.704 56.7093 75.1893 56.8747 75.616 57.088L75.04 58.304C74.688 58.144 74.2933 58 73.856 57.872C73.4293 57.744 72.96 57.68 72.448 57.68ZM84.9254 63.696C84.9254 64.4107 84.8294 65.0453 84.6374 65.6C84.456 66.144 84.1894 66.608 83.8374 66.992C83.496 67.376 83.0747 67.6693 82.5734 67.872C82.0827 68.064 81.5334 68.16 80.9254 68.16C80.36 68.16 79.8374 68.064 79.3574 67.872C78.8774 67.6693 78.4614 67.376 78.1094 66.992C77.7574 66.608 77.48 66.144 77.2774 65.6C77.0854 65.0453 76.9894 64.4107 76.9894 63.696C76.9894 62.7467 77.1494 61.9467 77.4694 61.296C77.7894 60.6347 78.248 60.1333 78.8454 59.792C79.4427 59.44 80.152 59.264 80.9734 59.264C81.752 59.264 82.4347 59.44 83.0214 59.792C83.6187 60.1333 84.0827 60.6347 84.4134 61.296C84.7547 61.9467 84.9254 62.7467 84.9254 63.696ZM78.4454 63.696C78.4454 64.368 78.5307 64.9547 78.7014 65.456C78.8827 65.9467 79.16 66.3253 79.5334 66.592C79.9067 66.8587 80.3814 66.992 80.9574 66.992C81.5334 66.992 82.008 66.8587 82.3814 66.592C82.7547 66.3253 83.0267 65.9467 83.1974 65.456C83.3787 64.9547 83.4694 64.368 83.4694 63.696C83.4694 63.0133 83.3787 62.432 83.1974 61.952C83.016 61.472 82.7387 61.104 82.3654 60.848C82.0027 60.5813 81.528 60.448 80.9414 60.448C80.0667 60.448 79.432 60.736 79.0374 61.312C78.6427 61.888 78.4454 62.6827 78.4454 63.696ZM91.2849 59.264C92.3089 59.264 93.0822 59.5147 93.6049 60.016C94.1275 60.5067 94.3889 61.3067 94.3889 62.416V68H92.9969V62.512C92.9969 61.8187 92.8422 61.3013 92.5329 60.96C92.2235 60.6187 91.7382 60.448 91.0769 60.448C90.1275 60.448 89.4715 60.7147 89.1089 61.248C88.7462 61.7813 88.5649 62.5493 88.5649 63.552V68H87.1569V59.424H88.2929L88.5009 60.592H88.5809C88.7729 60.2933 89.0075 60.048 89.2849 59.856C89.5729 59.6533 89.8875 59.504 90.2289 59.408C90.5702 59.312 90.9222 59.264 91.2849 59.264ZM100.36 59.264C101.096 59.264 101.725 59.424 102.248 59.744C102.781 60.064 103.186 60.5173 103.464 61.104C103.752 61.68 103.896 62.3573 103.896 63.136V63.984H98.0235C98.0448 64.9547 98.2902 65.696 98.7595 66.208C99.2395 66.7093 99.9062 66.96 100.76 66.96C101.304 66.96 101.784 66.912 102.2 66.816C102.626 66.7093 103.064 66.56 103.512 66.368V67.6C103.074 67.792 102.642 67.9307 102.216 68.016C101.789 68.112 101.282 68.16 100.696 68.16C99.8848 68.16 99.1648 67.9947 98.5355 67.664C97.9168 67.3333 97.4315 66.8427 97.0795 66.192C96.7382 65.5307 96.5675 64.7253 96.5675 63.776C96.5675 62.8373 96.7222 62.032 97.0315 61.36C97.3515 60.688 97.7942 60.1707 98.3595 59.808C98.9355 59.4453 99.6022 59.264 100.36 59.264ZM100.344 60.416C99.6715 60.416 99.1382 60.6347 98.7435 61.072C98.3595 61.4987 98.1302 62.096 98.0555 62.864H102.424C102.424 62.3733 102.349 61.9467 102.2 61.584C102.05 61.2213 101.821 60.9387 101.512 60.736C101.213 60.5227 100.824 60.416 100.344 60.416ZM107.798 63.616L104.838 59.424H106.438L108.646 62.656L110.838 59.424H112.422L109.462 63.616L112.582 68H110.982L108.646 64.576L106.278 68H104.694L107.798 63.616ZM117.483 59.28C118.528 59.28 119.302 59.5093 119.803 59.968C120.304 60.4267 120.555 61.1573 120.555 62.16V68H119.531L119.259 66.784H119.195C118.95 67.0933 118.694 67.3547 118.427 67.568C118.171 67.7707 117.872 67.92 117.531 68.016C117.2 68.112 116.795 68.16 116.315 68.16C115.803 68.16 115.339 68.0693 114.923 67.888C114.518 67.7067 114.198 67.4293 113.963 67.056C113.728 66.672 113.611 66.192 113.611 65.616C113.611 64.7627 113.947 64.1067 114.619 63.648C115.291 63.1787 116.326 62.9227 117.723 62.88L119.179 62.832V62.32C119.179 61.6053 119.024 61.1093 118.715 60.832C118.406 60.5547 117.968 60.416 117.403 60.416C116.955 60.416 116.528 60.4853 116.123 60.624C115.718 60.752 115.339 60.9013 114.987 61.072L114.555 60.016C114.928 59.8133 115.371 59.6427 115.883 59.504C116.395 59.3547 116.928 59.28 117.483 59.28ZM117.899 63.856C116.832 63.8987 116.091 64.0693 115.675 64.368C115.27 64.6667 115.067 65.088 115.067 65.632C115.067 66.112 115.211 66.464 115.499 66.688C115.798 66.912 116.176 67.024 116.635 67.024C117.36 67.024 117.963 66.8267 118.443 66.432C118.923 66.0267 119.163 65.408 119.163 64.576V63.808L117.899 63.856ZM114.443 58.304C114.475 57.984 114.534 57.7013 114.619 57.456C114.715 57.2 114.838 56.9867 114.987 56.816C115.136 56.6347 115.312 56.496 115.515 56.4C115.718 56.304 115.947 56.256 116.203 56.256C116.438 56.256 116.662 56.304 116.875 56.4C117.099 56.4853 117.312 56.592 117.515 56.72C117.718 56.8373 117.91 56.944 118.091 57.04C118.283 57.1253 118.464 57.168 118.635 57.168C118.88 57.168 119.067 57.0933 119.195 56.944C119.334 56.784 119.44 56.5493 119.515 56.24H120.315C120.251 56.8587 120.07 57.3547 119.771 57.728C119.472 58.1013 119.072 58.288 118.571 58.288C118.347 58.288 118.128 58.2453 117.915 58.16C117.702 58.064 117.488 57.9573 117.275 57.84C117.072 57.712 116.875 57.6053 116.683 57.52C116.502 57.424 116.32 57.376 116.139 57.376C115.883 57.376 115.691 57.456 115.563 57.616C115.435 57.7653 115.334 57.9947 115.259 58.304H114.443ZM130.66 63.696C130.66 64.4107 130.564 65.0453 130.372 65.6C130.19 66.144 129.924 66.608 129.572 66.992C129.23 67.376 128.809 67.6693 128.308 67.872C127.817 68.064 127.268 68.16 126.66 68.16C126.094 68.16 125.572 68.064 125.092 67.872C124.612 67.6693 124.196 67.376 123.844 66.992C123.492 66.608 123.214 66.144 123.012 65.6C122.82 65.0453 122.724 64.4107 122.724 63.696C122.724 62.7467 122.884 61.9467 123.204 61.296C123.524 60.6347 123.982 60.1333 124.58 59.792C125.177 59.44 125.886 59.264 126.708 59.264C127.486 59.264 128.169 59.44 128.756 59.792C129.353 60.1333 129.817 60.6347 130.148 61.296C130.489 61.9467 130.66 62.7467 130.66 63.696ZM124.18 63.696C124.18 64.368 124.265 64.9547 124.436 65.456C124.617 65.9467 124.894 66.3253 125.268 66.592C125.641 66.8587 126.116 66.992 126.692 66.992C127.268 66.992 127.742 66.8587 128.116 66.592C128.489 66.3253 128.761 65.9467 128.932 65.456C129.113 64.9547 129.204 64.368 129.204 63.696C129.204 63.0133 129.113 62.432 128.932 61.952C128.75 61.472 128.473 61.104 128.1 60.848C127.737 60.5813 127.262 60.448 126.676 60.448C125.801 60.448 125.166 60.736 124.772 61.312C124.377 61.888 124.18 62.6827 124.18 63.696Z" fill="#3B3B3B"/>
<path d="M203.448 57.68C202.84 57.68 202.291 57.7867 201.8 58C201.309 58.2027 200.893 58.5067 200.552 58.912C200.211 59.3067 199.949 59.792 199.768 60.368C199.587 60.9333 199.496 61.5733 199.496 62.288C199.496 63.2267 199.64 64.0427 199.928 64.736C200.227 65.4293 200.664 65.9627 201.24 66.336C201.827 66.7093 202.557 66.896 203.432 66.896C203.933 66.896 204.408 66.8533 204.856 66.768C205.304 66.6827 205.741 66.576 206.168 66.448V67.696C205.741 67.856 205.299 67.9733 204.84 68.048C204.392 68.1227 203.853 68.16 203.224 68.16C202.061 68.16 201.091 67.92 200.312 67.44C199.533 66.96 198.947 66.2773 198.552 65.392C198.168 64.5067 197.976 63.4667 197.976 62.272C197.976 61.408 198.093 60.6187 198.328 59.904C198.573 59.1893 198.925 58.5707 199.384 58.048C199.853 57.5253 200.429 57.1253 201.112 56.848C201.795 56.56 202.579 56.416 203.464 56.416C204.051 56.416 204.616 56.4747 205.16 56.592C205.704 56.7093 206.189 56.8747 206.616 57.088L206.04 58.304C205.688 58.144 205.293 58 204.856 57.872C204.429 57.744 203.96 57.68 203.448 57.68ZM211.717 59.28C212.763 59.28 213.536 59.5093 214.037 59.968C214.539 60.4267 214.789 61.1573 214.789 62.16V68H213.765L213.493 66.784H213.429C213.184 67.0933 212.928 67.3547 212.661 67.568C212.405 67.7707 212.107 67.92 211.765 68.016C211.435 68.112 211.029 68.16 210.549 68.16C210.037 68.16 209.573 68.0693 209.157 67.888C208.752 67.7067 208.432 67.4293 208.197 67.056C207.963 66.672 207.845 66.192 207.845 65.616C207.845 64.7627 208.181 64.1067 208.853 63.648C209.525 63.1787 210.56 62.9227 211.957 62.88L213.413 62.832V62.32C213.413 61.6053 213.259 61.1093 212.949 60.832C212.64 60.5547 212.203 60.416 211.637 60.416C211.189 60.416 210.763 60.4853 210.357 60.624C209.952 60.752 209.573 60.9013 209.221 61.072L208.789 60.016C209.163 59.8133 209.605 59.6427 210.117 59.504C210.629 59.3547 211.163 59.28 211.717 59.28ZM212.133 63.856C211.067 63.8987 210.325 64.0693 209.909 64.368C209.504 64.6667 209.301 65.088 209.301 65.632C209.301 66.112 209.445 66.464 209.733 66.688C210.032 66.912 210.411 67.024 210.869 67.024C211.595 67.024 212.197 66.8267 212.677 66.432C213.157 66.0267 213.397 65.408 213.397 64.576V63.808L212.133 63.856ZM223.022 65.632C223.022 66.1867 222.883 66.6507 222.606 67.024C222.329 67.3973 221.934 67.68 221.422 67.872C220.91 68.064 220.302 68.16 219.598 68.16C219.001 68.16 218.483 68.112 218.046 68.016C217.619 67.92 217.241 67.7867 216.91 67.616V66.336C217.251 66.5067 217.662 66.6667 218.142 66.816C218.633 66.9547 219.129 67.024 219.63 67.024C220.345 67.024 220.862 66.912 221.182 66.688C221.502 66.4533 221.662 66.144 221.662 65.76C221.662 65.5467 221.603 65.3547 221.486 65.184C221.369 65.0133 221.155 64.8427 220.846 64.672C220.547 64.5013 220.115 64.3093 219.55 64.096C218.995 63.8827 218.521 63.6693 218.126 63.456C217.731 63.2427 217.427 62.9867 217.214 62.688C217.001 62.3893 216.894 62.0053 216.894 61.536C216.894 60.8107 217.187 60.2507 217.774 59.856C218.371 59.4613 219.15 59.264 220.11 59.264C220.633 59.264 221.118 59.3173 221.566 59.424C222.025 59.52 222.451 59.6587 222.846 59.84L222.366 60.96C222.131 60.8533 221.881 60.7627 221.614 60.688C221.358 60.6027 221.097 60.5387 220.83 60.496C220.563 60.4427 220.291 60.416 220.014 60.416C219.438 60.416 218.995 60.512 218.686 60.704C218.387 60.8853 218.238 61.136 218.238 61.456C218.238 61.6907 218.307 61.8933 218.446 62.064C218.585 62.224 218.814 62.384 219.134 62.544C219.465 62.6933 219.902 62.8747 220.446 63.088C220.99 63.2907 221.454 63.4987 221.838 63.712C222.222 63.9253 222.515 64.1867 222.718 64.496C222.921 64.7947 223.022 65.1733 223.022 65.632ZM228.342 59.28C229.388 59.28 230.161 59.5093 230.662 59.968C231.164 60.4267 231.414 61.1573 231.414 62.16V68H230.39L230.118 66.784H230.054C229.809 67.0933 229.553 67.3547 229.286 67.568C229.03 67.7707 228.732 67.92 228.39 68.016C228.06 68.112 227.654 68.16 227.174 68.16C226.662 68.16 226.198 68.0693 225.782 67.888C225.377 67.7067 225.057 67.4293 224.822 67.056C224.588 66.672 224.47 66.192 224.47 65.616C224.47 64.7627 224.806 64.1067 225.478 63.648C226.15 63.1787 227.185 62.9227 228.582 62.88L230.038 62.832V62.32C230.038 61.6053 229.884 61.1093 229.574 60.832C229.265 60.5547 228.828 60.416 228.262 60.416C227.814 60.416 227.388 60.4853 226.982 60.624C226.577 60.752 226.198 60.9013 225.846 61.072L225.414 60.016C225.788 59.8133 226.23 59.6427 226.742 59.504C227.254 59.3547 227.788 59.28 228.342 59.28ZM228.758 63.856C227.692 63.8987 226.95 64.0693 226.534 64.368C226.129 64.6667 225.926 65.088 225.926 65.632C225.926 66.112 226.07 66.464 226.358 66.688C226.657 66.912 227.036 67.024 227.494 67.024C228.22 67.024 228.822 66.8267 229.302 66.432C229.782 66.0267 230.022 65.408 230.022 64.576V63.808L228.758 63.856ZM235.471 68H234.063V55.84H235.471V68Z" fill="#3B3B3B"/>
<path d="M306.72 68L305.344 64.464H300.816L299.456 68H298L302.464 56.528H303.76L308.208 68H306.72ZM303.632 59.728C303.6 59.6427 303.547 59.488 303.472 59.264C303.397 59.04 303.323 58.8107 303.248 58.576C303.184 58.3307 303.131 58.144 303.088 58.016C303.035 58.2293 302.976 58.448 302.912 58.672C302.859 58.8853 302.8 59.0827 302.736 59.264C302.683 59.4453 302.635 59.6 302.592 59.728L301.296 63.184H304.912L303.632 59.728ZM318.987 59.264C319.957 59.264 320.683 59.5147 321.163 60.016C321.643 60.5067 321.883 61.3067 321.883 62.416V68H320.491V62.48C320.491 61.808 320.347 61.3013 320.059 60.96C319.781 60.6187 319.344 60.448 318.747 60.448C317.915 60.448 317.317 60.688 316.955 61.168C316.603 61.648 316.427 62.3467 316.427 63.264V68H315.035V62.48C315.035 62.032 314.971 61.6587 314.843 61.36C314.715 61.0507 314.523 60.8213 314.267 60.672C314.011 60.5227 313.68 60.448 313.275 60.448C312.699 60.448 312.245 60.5707 311.915 60.816C311.584 61.0507 311.344 61.3973 311.195 61.856C311.056 62.3147 310.987 62.88 310.987 63.552V68H309.579V59.424H310.715L310.923 60.592H311.003C311.184 60.2933 311.403 60.048 311.659 59.856C311.925 59.6533 312.219 59.504 312.539 59.408C312.859 59.312 313.189 59.264 313.531 59.264C314.192 59.264 314.741 59.3813 315.179 59.616C315.627 59.8507 315.952 60.2133 316.155 60.704H316.235C316.523 60.2133 316.912 59.8507 317.403 59.616C317.904 59.3813 318.432 59.264 318.987 59.264ZM331.988 63.696C331.988 64.4107 331.892 65.0453 331.7 65.6C331.519 66.144 331.252 66.608 330.9 66.992C330.559 67.376 330.137 67.6693 329.636 67.872C329.145 68.064 328.596 68.16 327.988 68.16C327.423 68.16 326.9 68.064 326.42 67.872C325.94 67.6693 325.524 67.376 325.172 66.992C324.82 66.608 324.543 66.144 324.34 65.6C324.148 65.0453 324.052 64.4107 324.052 63.696C324.052 62.7467 324.212 61.9467 324.532 61.296C324.852 60.6347 325.311 60.1333 325.908 59.792C326.505 59.44 327.215 59.264 328.036 59.264C328.815 59.264 329.497 59.44 330.084 59.792C330.681 60.1333 331.145 60.6347 331.476 61.296C331.817 61.9467 331.988 62.7467 331.988 63.696ZM325.508 63.696C325.508 64.368 325.593 64.9547 325.764 65.456C325.945 65.9467 326.223 66.3253 326.596 66.592C326.969 66.8587 327.444 66.992 328.02 66.992C328.596 66.992 329.071 66.8587 329.444 66.592C329.817 66.3253 330.089 65.9467 330.26 65.456C330.441 64.9547 330.532 64.368 330.532 63.696C330.532 63.0133 330.441 62.432 330.26 61.952C330.079 61.472 329.801 61.104 329.428 60.848C329.065 60.5813 328.591 60.448 328.004 60.448C327.129 60.448 326.495 60.736 326.1 61.312C325.705 61.888 325.508 62.6827 325.508 63.696ZM338.219 59.264C338.379 59.264 338.55 59.2747 338.731 59.296C338.923 59.3067 339.089 59.328 339.227 59.36L339.051 60.656C338.913 60.624 338.758 60.5973 338.587 60.576C338.427 60.5547 338.273 60.544 338.123 60.544C337.793 60.544 337.478 60.6133 337.179 60.752C336.881 60.8907 336.614 61.088 336.379 61.344C336.145 61.5893 335.958 61.888 335.819 62.24C335.691 62.592 335.627 62.9867 335.627 63.424V68H334.219V59.424H335.371L335.531 60.992H335.595C335.777 60.672 335.995 60.384 336.251 60.128C336.507 59.8613 336.801 59.6533 337.131 59.504C337.462 59.344 337.825 59.264 338.219 59.264Z" fill="#3B3B3B"/>
</g>
<defs>
<filter id="filter0_d_637_185" x="0.4" y="0.4" width="384.2" height="123.2" filterUnits="userSpaceOnUse" color-interpolation-filters="sRGB">
<feFlood flood-opacity="0" result="BackgroundImageFix"/>
<feColorMatrix in="SourceAlpha" type="matrix" values="0 0 0 0 0 0 0 0 0 0 0 0 0 0 0 0 0 0 127 0" result="hardAlpha"/>
<feOffset/>
<feGaussianBlur stdDeviation="11.3"/>
<feComposite in2="hardAlpha" operator="out"/>
<feColorMatrix type="matrix" values="0 0 0 0 0 0 0 0 0 0 0 0 0 0 0 0 0 0 0.25 0"/>
<feBlend mode="normal" in2="BackgroundImageFix" result="effect1_dropShadow_637_185"/>
<feBlend mode="normal" in="SourceGraphic" in2="effect1_dropShadow_637_185" result="shape"/>
</filter>
<filter id="filter1_i_637_185" x="-17" y="-17" width="419" height="158" filterUnits="userSpaceOnUse" color-interpolation-filters="sRGB">
<feFlood flood-opacity="0" result="BackgroundImageFix"/>
<feBlend mode="normal" in="SourceGraphic" in2="BackgroundImageFix" result="shape"/>
<feColorMatrix in="SourceAlpha" type="matrix" values="0 0 0 0 0 0 0 0 0 0 0 0 0 0 0 0 0 0 127 0" result="hardAlpha"/>
<feOffset/>
<feGaussianBlur stdDeviation="1"/>
<feComposite in2="hardAlpha" operator="arithmetic" k2="-1" k3="1"/>
<feColorMatrix type="matrix" values="0 0 0 0 1 0 0 0 0 1 0 0 0 0 1 0 0 0 0.25 0"/>
<feBlend mode="normal" in2="shape" result="effect1_innerShadow_637_185"/>
</filter>
</defs>
</svg>
