<svg width="155" height="38" viewBox="0 0 155 38" fill="none" xmlns="http://www.w3.org/2000/svg">
<g filter="url(#filter0_d_637_131)">
<rect x="2" y="2.66663" width="150.667" height="32" rx="7" fill="white"/>
</g>
<path d="M45.8558 23V13H49.1335C50.0373 13 50.8224 13.1481 51.4891 13.4444C52.1632 13.7407 52.7187 14.1333 53.1558 14.6222C53.5928 15.1111 53.9187 15.6519 54.1335 16.2444C54.3484 16.8296 54.4558 17.4148 54.4558 18C54.4558 18.5852 54.3484 19.1741 54.1335 19.7667C53.9187 20.3519 53.5928 20.8889 53.1558 21.3778C52.7187 21.8667 52.1632 22.2593 51.4891 22.5556C50.8224 22.8519 50.0373 23 49.1335 23H45.8558ZM47.1224 21.8667H49.0002C49.7706 21.8667 50.4187 21.7481 50.9447 21.5111C51.4706 21.2667 51.8965 20.9519 52.2224 20.5667C52.5484 20.1741 52.7817 19.7519 52.9224 19.3C53.0706 18.8481 53.1447 18.4148 53.1447 18C53.1447 17.5852 53.0706 17.1519 52.9224 16.7C52.7817 16.2481 52.5484 15.8296 52.2224 15.4444C51.8965 15.0519 51.4706 14.737 50.9447 14.5C50.4187 14.2556 49.7706 14.1333 49.0002 14.1333H47.1224V21.8667ZM59.1748 23.1333C58.5303 23.1333 57.9414 22.9778 57.4081 22.6667C56.8748 22.3556 56.4488 21.937 56.1303 21.4111C55.8192 20.8852 55.6636 20.3037 55.6636 19.6667C55.6636 19.0222 55.8192 18.4407 56.1303 17.9222C56.4488 17.3963 56.8748 16.9778 57.4081 16.6667C57.9414 16.3556 58.5303 16.2 59.1748 16.2C59.8266 16.2 60.4155 16.3556 60.9414 16.6667C61.4748 16.9778 61.897 17.3963 62.2081 17.9222C62.5266 18.4407 62.6859 19.0222 62.6859 19.6667C62.6859 20.3037 62.5266 20.8852 62.2081 21.4111C61.897 21.937 61.4748 22.3556 60.9414 22.6667C60.4155 22.9778 59.8266 23.1333 59.1748 23.1333ZM59.1748 22C59.6044 22 59.9933 21.8963 60.3414 21.6889C60.6896 21.4741 60.9673 21.1926 61.1748 20.8444C61.3822 20.4889 61.4859 20.0963 61.4859 19.6667C61.4859 19.237 61.3822 18.8481 61.1748 18.5C60.9673 18.1444 60.6896 17.863 60.3414 17.6556C59.9933 17.4407 59.6044 17.3333 59.1748 17.3333C58.7451 17.3333 58.3562 17.4407 58.0081 17.6556C57.6599 17.863 57.3822 18.1444 57.1748 18.5C56.9673 18.8481 56.8636 19.237 56.8636 19.6667C56.8636 20.0963 56.9673 20.4889 57.1748 20.8444C57.3822 21.1926 57.6599 21.4741 58.0081 21.6889C58.3562 21.8963 58.7451 22 59.1748 22ZM66.4996 23.3333L63.133 16.3333H64.4996L65.8441 19.2222C65.97 19.4963 66.0885 19.763 66.1996 20.0222C66.3182 20.2815 66.433 20.6074 66.5441 21C66.6626 20.6148 66.7811 20.2889 66.8996 20.0222C67.0256 19.7556 67.1441 19.4889 67.2552 19.2222L68.5996 16.0222L69.933 19.2222C70.0441 19.4963 70.1589 19.763 70.2774 20.0222C70.3959 20.2815 70.5108 20.6074 70.6219 21C70.733 20.6074 70.8478 20.2815 70.9663 20.0222C71.0848 19.7556 71.2071 19.4889 71.333 19.2222L72.6996 16.3333H73.9774L70.6108 23.3333L69.2552 20.3556C69.1367 20.0889 69.0182 19.8259 68.8996 19.5667C68.7885 19.3 68.6737 18.9815 68.5552 18.6111C68.4441 18.9815 68.3293 19.3 68.2108 19.5667C68.0922 19.8259 67.97 20.0889 67.8441 20.3556L66.4996 23.3333ZM75.1117 23V16.3333H76.2228V17.4111C76.4672 17.0185 76.7821 16.7185 77.1672 16.5111C77.5598 16.3037 77.9821 16.2 78.4339 16.2C78.908 16.2 79.345 16.3185 79.745 16.5556C80.1524 16.7852 80.4821 17.1222 80.7339 17.5667C80.9858 18.0037 81.1117 18.537 81.1117 19.1667V23H79.9117V19.3333C79.9117 18.8074 79.7524 18.3444 79.4339 17.9444C79.1228 17.537 78.6821 17.3333 78.1117 17.3333C77.645 17.3333 77.2265 17.5037 76.8561 17.8444C76.4932 18.1778 76.3117 18.663 76.3117 19.3V23H75.1117ZM83.0477 23V12.3333H84.2477V23H83.0477ZM89.3563 23.1333C88.7118 23.1333 88.1229 22.9778 87.5896 22.6667C87.0563 22.3556 86.6303 21.937 86.3118 21.4111C86.0007 20.8852 85.8451 20.3037 85.8451 19.6667C85.8451 19.0222 86.0007 18.4407 86.3118 17.9222C86.6303 17.3963 87.0563 16.9778 87.5896 16.6667C88.1229 16.3556 88.7118 16.2 89.3563 16.2C90.0081 16.2 90.597 16.3556 91.1229 16.6667C91.6563 16.9778 92.0785 17.3963 92.3896 17.9222C92.7081 18.4407 92.8674 19.0222 92.8674 19.6667C92.8674 20.3037 92.7081 20.8852 92.3896 21.4111C92.0785 21.937 91.6563 22.3556 91.1229 22.6667C90.597 22.9778 90.0081 23.1333 89.3563 23.1333ZM89.3563 22C89.7859 22 90.1748 21.8963 90.5229 21.6889C90.8711 21.4741 91.1488 21.1926 91.3563 20.8444C91.5637 20.4889 91.6674 20.0963 91.6674 19.6667C91.6674 19.237 91.5637 18.8481 91.3563 18.5C91.1488 18.1444 90.8711 17.863 90.5229 17.6556C90.1748 17.4407 89.7859 17.3333 89.3563 17.3333C88.9266 17.3333 88.5377 17.4407 88.1896 17.6556C87.8414 17.863 87.5637 18.1444 87.3563 18.5C87.1488 18.8481 87.0451 19.237 87.0451 19.6667C87.0451 20.0963 87.1488 20.4889 87.3563 20.8444C87.5637 21.1926 87.8414 21.4741 88.1896 21.6889C88.5377 21.8963 88.9266 22 89.3563 22ZM97.3221 23.0889C96.7147 23.0889 96.1592 22.937 95.6554 22.6333C95.1517 22.3222 94.748 21.9074 94.4443 21.3889C94.148 20.8704 93.9999 20.2963 93.9999 19.6667C93.9999 19.037 94.148 18.463 94.4443 17.9444C94.748 17.4259 95.1517 17.0148 95.6554 16.7111C96.1592 16.4 96.7147 16.2444 97.3221 16.2444C97.7814 16.2444 98.211 16.3296 98.611 16.5C99.0184 16.6704 99.3703 16.9074 99.6666 17.2111V16.3333H100.778V23H99.6666V22.1222C99.3703 22.4185 99.0184 22.6556 98.611 22.8333C98.211 23.0037 97.7814 23.0889 97.3221 23.0889ZM97.4777 22C97.8999 22 98.2814 21.8963 98.6221 21.6889C98.9703 21.4741 99.2443 21.1926 99.4443 20.8444C99.6517 20.4889 99.7554 20.0963 99.7554 19.6667C99.7554 19.237 99.6517 18.8481 99.4443 18.5C99.2443 18.1444 98.9703 17.863 98.6221 17.6556C98.2814 17.4407 97.8999 17.3333 97.4777 17.3333C97.0554 17.3333 96.6703 17.4407 96.3221 17.6556C95.9814 17.863 95.7073 18.1444 95.4999 18.5C95.2999 18.8481 95.1999 19.237 95.1999 19.6667C95.1999 20.0963 95.2999 20.4889 95.4999 20.8444C95.7073 21.1926 95.9814 21.4741 96.3221 21.6889C96.6703 21.8963 97.0554 22 97.4777 22ZM105.696 23.0889C105.088 23.0889 104.533 22.937 104.029 22.6333C103.525 22.3222 103.122 21.9074 102.818 21.3889C102.522 20.8704 102.373 20.2963 102.373 19.6667C102.373 19.037 102.522 18.463 102.818 17.9444C103.122 17.4259 103.525 17.0148 104.029 16.7111C104.533 16.4 105.088 16.2444 105.696 16.2444C106.133 16.2444 106.544 16.3222 106.929 16.4778C107.314 16.6333 107.655 16.8481 107.951 17.1222V12.3333H109.151V23H108.04V22.1222C107.744 22.4185 107.392 22.6556 106.985 22.8333C106.585 23.0037 106.155 23.0889 105.696 23.0889ZM105.851 22C106.273 22 106.655 21.8963 106.996 21.6889C107.344 21.4741 107.618 21.1926 107.818 20.8444C108.025 20.4889 108.129 20.0963 108.129 19.6667C108.129 19.237 108.025 18.8481 107.818 18.5C107.618 18.1444 107.344 17.863 106.996 17.6556C106.655 17.4407 106.273 17.3333 105.851 17.3333C105.429 17.3333 105.044 17.4407 104.696 17.6556C104.355 17.863 104.081 18.1444 103.873 18.5C103.673 18.8481 103.573 19.237 103.573 19.6667C103.573 20.0963 103.673 20.4889 103.873 20.8444C104.081 21.1926 104.355 21.4741 104.696 21.6889C105.044 21.8963 105.429 22 105.851 22Z" fill="url(#paint0_linear_637_131)"/>
<defs>
<filter id="filter0_d_637_131" x="0" y="1.66663" width="154.667" height="36" filterUnits="userSpaceOnUse" color-interpolation-filters="sRGB">
<feFlood flood-opacity="0" result="BackgroundImageFix"/>
<feColorMatrix in="SourceAlpha" type="matrix" values="0 0 0 0 0 0 0 0 0 0 0 0 0 0 0 0 0 0 127 0" result="hardAlpha"/>
<feOffset dy="1"/>
<feGaussianBlur stdDeviation="1"/>
<feComposite in2="hardAlpha" operator="out"/>
<feColorMatrix type="matrix" values="0 0 0 0 0 0 0 0 0 0 0 0 0 0 0 0 0 0 0.25 0"/>
<feBlend mode="normal" in2="BackgroundImageFix" result="effect1_dropShadow_637_131"/>
<feBlend mode="normal" in="SourceGraphic" in2="effect1_dropShadow_637_131" result="shape"/>
</filter>
<linearGradient id="paint0_linear_637_131" x1="3.33333" y1="18" x2="151.333" y2="18" gradientUnits="userSpaceOnUse">
<stop stop-color="#FFB252"/>
<stop offset="0.333333" stop-color="#FF602C"/>
<stop offset="0.666667" stop-color="#CE56D2"/>
<stop offset="1" stop-color="#6169FE"/>
</linearGradient>
</defs>
</svg>
