<svg width="313" height="455" viewBox="0 0 313 455" fill="none" xmlns="http://www.w3.org/2000/svg">
<mask id="mask0_637_111" style="mask-type:alpha" maskUnits="userSpaceOnUse" x="0" y="0" width="328" height="455">
<rect x="1.87286" y="454.063" width="452.719" height="326.006" transform="rotate(-90.237 1.87286 454.063)" fill="#FF0000"/>
</mask>
<g mask="url(#mask0_637_111)">
<path d="M7.49601 227.678C7.32511 186.328 33.4089 148.714 75.8663 121.345C118.318 93.9792 177.081 76.9024 242.091 76.6334C307.101 76.3644 366.003 92.9546 408.68 119.968C451.362 146.985 477.756 184.382 477.928 225.732C478.099 267.082 452.015 304.697 409.557 332.067C367.105 359.432 308.343 376.509 243.333 376.778C178.322 377.047 119.42 360.457 76.7437 333.444C34.0612 306.427 7.66707 269.029 7.49601 227.678Z" stroke="#FFC1C1" stroke-opacity="0.51"/>
<path d="M369.324 214.464C399.229 226.392 420.481 241.543 430.683 256.379C440.893 271.226 439.995 285.68 425.87 296.3C411.745 306.92 386.899 311.822 357.961 311.055C329.047 310.289 296.195 303.859 266.29 291.931C236.385 280.003 215.133 264.852 204.931 250.017C194.721 235.169 195.619 220.715 209.745 210.095C223.87 199.475 248.716 194.573 277.653 195.34C306.568 196.107 339.419 202.536 369.324 214.464Z" stroke="#FFC1C1" stroke-opacity="0.51"/>
<path d="M98.4222 235.28C98.2982 205.294 115.831 178.019 144.388 158.174C172.942 138.331 212.48 125.951 256.231 125.77C299.983 125.589 339.622 137.641 368.34 157.248C397.06 176.856 414.818 203.984 414.942 233.971C415.066 263.957 397.533 291.232 368.976 311.077C340.422 330.921 300.884 343.301 257.132 343.482C213.38 343.663 173.742 331.61 145.024 312.004C116.304 292.396 98.5462 265.266 98.4222 235.28Z" stroke="#FFC1C1" stroke-opacity="0.51"/>
</g>
</svg>
