<svg width="169" height="219" viewBox="0 0 169 219" fill="none" xmlns="http://www.w3.org/2000/svg">
<path opacity="0.25" d="M145.057 -62.1355C162.623 -77.4032 187.039 -81.4961 212.366 -75.701C237.692 -69.906 263.889 -54.2275 284.931 -30.0182C305.973 -5.80904 317.85 22.3164 320.061 48.2027C322.272 74.0895 314.818 97.698 297.253 112.966C279.687 128.233 255.271 132.326 229.944 126.531C204.618 120.736 178.421 105.058 157.379 80.8485C136.337 56.6393 124.46 28.5138 122.249 2.62756C120.038 -23.2593 127.492 -46.8677 145.057 -62.1355Z" stroke="#FF9797"/>
<path opacity="0.25" d="M101.464 -107.716C157.056 -156.036 248.429 -142.134 305.545 -76.422C362.662 -10.7098 363.701 81.7093 308.109 130.029C252.518 178.348 161.144 164.447 104.028 98.7343C46.9117 33.0221 45.8725 -59.3969 101.464 -107.716Z" stroke="#FF9797"/>
</svg>
