<svg width="210" height="289" viewBox="0 0 210 289" fill="none" xmlns="http://www.w3.org/2000/svg">
<rect x="108.61" y="205.679" width="95.8611" height="25.0379" fill="#FF0505" stroke="#FF0505"/>
<circle cx="59.6797" cy="28.6417" r="28.1417" fill="#FF0505" stroke="#FF0505"/>
<circle cx="146.126" cy="28.6417" r="28.1417" fill="#FF0505" stroke="#FF0505"/>
<path d="M173.963 234.638C179.109 234.638 183.728 235.689 187.808 237.802H187.807C191.909 239.917 195.148 242.975 197.517 246.966L197.737 247.342C199.985 251.254 201.098 255.913 201.098 261.298C201.098 266.857 199.911 271.649 197.517 275.653L197.518 275.654C195.149 279.63 191.909 282.678 187.807 284.793L187.808 284.794C183.728 286.908 179.109 287.958 173.963 287.958C168.817 287.958 164.19 286.907 160.092 284.794L160.089 284.793C156.006 282.662 152.769 279.604 150.382 275.63L150.38 275.628C148.005 271.624 146.829 266.841 146.829 261.298C146.829 255.74 148.005 250.955 150.381 246.967V246.966L150.839 246.229C153.176 242.597 156.262 239.786 160.091 237.802H160.092L160.866 237.418C164.77 235.562 169.139 234.638 173.963 234.638ZM75.9619 223.426L76.0654 223.789L78.1016 230.901H78.1055L78.2051 231.263L78.3877 231.901H78.3799L89.5186 272.381L100.451 235.691L100.558 235.334H111.578L111.685 235.691L122.632 272.364L132.857 235.7L132.96 235.334H145.318L145.108 235.987L128.749 286.916L128.638 287.262H117.55L117.438 286.917L106.081 251.948L94.6982 286.917L94.5859 287.262H83.5039L83.3896 286.922L64.8418 231.901H45.3301L45.1816 286.418L45.1807 286.917H33.915V231.901H11.6709L11.5703 231.533L9.51758 224.059L9.34375 223.426H75.9619ZM173.963 243.918C170.887 243.919 168.191 244.59 165.861 245.917L165.858 245.918C163.536 247.226 161.705 249.163 160.368 251.752L160.369 251.753C159.056 254.318 158.387 257.492 158.387 261.298C158.387 265.103 159.055 268.285 160.368 270.866L160.624 271.341C161.935 273.68 163.681 275.463 165.861 276.705H165.86C168.19 278.016 170.887 278.678 173.963 278.678C177.04 278.678 179.737 278.015 182.067 276.704C184.391 275.379 186.212 273.44 187.529 270.868V270.867L187.771 270.375C188.943 267.885 189.54 264.866 189.54 261.298C189.54 257.493 188.861 254.32 187.53 251.756L187.528 251.752C186.211 249.164 184.39 247.226 182.067 245.918L182.065 245.917C179.735 244.59 177.039 243.918 173.963 243.918Z" fill="#FF0505" stroke="#FF0505"/>
<g filter="url(#filter0_d_599_117)">
<path d="M95.0913 229.134V200.492L66.163 173.413C66.163 173.413 51.8805 159.651 42.7289 150.499L36.4798 144.25C36.4798 144.25 31.0551 139.13 29.1891 135.397C27.6269 132.273 26.6643 130.488 26.0646 127.065C25.8822 126.024 25.262 121.975 25.5439 118.733C25.9062 114.567 26.6007 112.167 28.1476 108.318C28.6684 107.022 30.6715 103.331 32.8344 100.507C34.0309 98.9442 37.9383 94.3223 42.2081 91.6537C46.3742 89.0498 49.4988 88.0082 52.6233 87.4875C55.2716 87.0461 58.15 87.0714 61.0747 87.4876C63.5593 87.8412 64.8936 88.2796 67.2045 89.0499C71.8914 90.612 84.1553 96.3405 84.1553 96.3405L93.529 77.5932C93.529 77.5932 90.1185 74.9894 73.4542 69.261C67.2252 67.1198 64.0806 66.6573 56.7893 66.6572C51.0049 66.6572 47.7276 67.008 42.2087 68.7402C36.6523 70.4841 33.8765 72.0476 28.6684 75.5101C21.6188 80.1969 16.6914 86.9667 14.0877 90.612C11.484 94.2574 9.92164 97.3819 9.92164 97.3819C3.6725 109.359 4.78674 122.899 5.75502 129.669C6.2764 133.314 8.35885 139.563 8.35885 139.563C8.35885 139.563 9.92112 146.333 18.7739 155.707L45.8534 182.786L95.0913 229.134Z" fill="#FF0505"/>
<path d="M95.0913 229.134V200.492L66.163 173.413C66.163 173.413 51.8805 159.651 42.7289 150.499L36.4798 144.25C36.4798 144.25 31.0551 139.13 29.1891 135.397C27.6269 132.273 26.6643 130.488 26.0646 127.065C25.8822 126.024 25.262 121.975 25.5439 118.733C25.9062 114.567 26.6007 112.167 28.1476 108.318C28.6684 107.022 30.6715 103.331 32.8344 100.507C34.0309 98.9442 37.9383 94.3223 42.2081 91.6537C46.3742 89.0498 49.4988 88.0082 52.6233 87.4875C55.2716 87.0461 58.15 87.0714 61.0747 87.4876C63.5593 87.8412 64.8936 88.2796 67.2045 89.0499C71.8914 90.612 84.1553 96.3405 84.1553 96.3405L93.529 77.5932C93.529 77.5932 90.1185 74.9894 73.4542 69.261C67.2252 67.1198 64.0806 66.6573 56.7893 66.6572C51.0049 66.6572 47.7276 67.008 42.2087 68.7402C36.6523 70.4841 33.8765 72.0476 28.6684 75.5101C21.6188 80.1969 16.6914 86.9667 14.0877 90.612C11.484 94.2574 9.92164 97.3819 9.92164 97.3819C3.6725 109.359 4.78674 122.899 5.75502 129.669C6.2764 133.314 8.35885 139.563 8.35885 139.563C8.35885 139.563 9.92112 146.333 18.7739 155.707L45.8534 182.786L95.0913 229.134Z" stroke="#FF0505"/>
</g>
<g filter="url(#filter1_d_599_117)">
<path d="M88.3214 128.627H108.395C108.395 128.627 108.631 124.982 109.152 120.295C109.558 116.636 110.193 113.525 111.235 109.359C112.294 105.123 113.752 102.904 116.442 99.4646C119.828 95.1367 122.52 93.1784 127.378 90.6117C132.788 87.7538 136.377 86.8669 142.48 86.4456C148.621 86.0217 155.499 87.1987 158.103 88.0083C159.48 88.4366 167.034 91.5962 171.643 95.2985C175.809 98.6451 178.005 100.507 181.016 106.755C183.287 111.465 184.013 114.547 184.141 119.774C184.205 122.378 184.141 129.148 181.016 134.355C178.162 139.112 174.868 142.076 169.794 146.642L169.56 146.854C157.581 157.635 138.835 174.975 138.835 174.975L108.631 199.971V229.134L146.646 196.326L172.164 172.371C172.164 172.371 184.662 161.435 191.952 153.623C196.648 148.593 199.232 145.408 201.847 139.042C204.744 131.991 205.124 127.396 204.971 119.774C204.867 114.567 203.849 107.273 200.805 99.9853C197.588 92.2823 194.858 88.0524 188.828 82.2795C183.408 77.0912 179.499 75.0023 172.684 71.8643C166.435 68.9869 156.02 65.3504 144.043 65.6152C135.11 65.8127 126.337 67.9586 121.65 70.3021C111.756 75.2493 103.058 80.6592 96.1328 91.6532C88.373 103.972 88.3214 128.627 88.3214 128.627Z" fill="#FF0505"/>
<path d="M88.3214 128.627H108.395C108.395 128.627 108.631 124.982 109.152 120.295C109.558 116.636 110.193 113.525 111.235 109.359C112.294 105.123 113.752 102.904 116.442 99.4646C119.828 95.1367 122.52 93.1784 127.378 90.6117C132.788 87.7538 136.377 86.8669 142.48 86.4456C148.621 86.0217 155.499 87.1987 158.103 88.0083C159.48 88.4366 167.034 91.5962 171.643 95.2985C175.809 98.6451 178.005 100.507 181.016 106.755C183.287 111.465 184.013 114.547 184.141 119.774C184.205 122.378 184.141 129.148 181.016 134.355C178.162 139.112 174.868 142.076 169.794 146.642L169.56 146.854C157.581 157.635 138.835 174.975 138.835 174.975L108.631 199.971V229.134L146.646 196.326L172.164 172.371C172.164 172.371 184.662 161.435 191.952 153.623C196.648 148.593 199.232 145.408 201.847 139.042C204.744 131.991 205.124 127.396 204.971 119.774C204.867 114.567 203.849 107.273 200.805 99.9853C197.588 92.2823 194.858 88.0524 188.828 82.2795C183.408 77.0912 179.499 75.0023 172.684 71.8643C166.435 68.9869 156.02 65.3504 144.043 65.6152C135.11 65.8127 126.337 67.9586 121.65 70.3021C111.756 75.2493 103.058 80.6592 96.1328 91.6532C88.373 103.972 88.3214 128.627 88.3214 128.627Z" stroke="#FF0505"/>
</g>
<defs>
<filter id="filter0_d_599_117" x="0.499878" y="66.1572" width="99.0914" height="172.134" filterUnits="userSpaceOnUse" color-interpolation-filters="sRGB">
<feFlood flood-opacity="0" result="BackgroundImageFix"/>
<feColorMatrix in="SourceAlpha" type="matrix" values="0 0 0 0 0 0 0 0 0 0 0 0 0 0 0 0 0 0 127 0" result="hardAlpha"/>
<feOffset dy="4"/>
<feGaussianBlur stdDeviation="2"/>
<feComposite in2="hardAlpha" operator="out"/>
<feColorMatrix type="matrix" values="0 0 0 0 0 0 0 0 0 0 0 0 0 0 0 0 0 0 0.25 0"/>
<feBlend mode="normal" in2="BackgroundImageFix" result="effect1_dropShadow_599_117"/>
<feBlend mode="normal" in="SourceGraphic" in2="effect1_dropShadow_599_117" result="shape"/>
</filter>
<filter id="filter1_d_599_117" x="83.8203" y="65.1016" width="125.68" height="173.125" filterUnits="userSpaceOnUse" color-interpolation-filters="sRGB">
<feFlood flood-opacity="0" result="BackgroundImageFix"/>
<feColorMatrix in="SourceAlpha" type="matrix" values="0 0 0 0 0 0 0 0 0 0 0 0 0 0 0 0 0 0 127 0" result="hardAlpha"/>
<feOffset dy="4"/>
<feGaussianBlur stdDeviation="2"/>
<feComposite in2="hardAlpha" operator="out"/>
<feColorMatrix type="matrix" values="0 0 0 0 0 0 0 0 0 0 0 0 0 0 0 0 0 0 0.25 0"/>
<feBlend mode="normal" in2="BackgroundImageFix" result="effect1_dropShadow_599_117"/>
<feBlend mode="normal" in="SourceGraphic" in2="effect1_dropShadow_599_117" result="shape"/>
</filter>
</defs>
</svg>
